<?xml version="1.0" encoding="utf-8"?>
<!-- Generator: Adobe Adobe Illustrator 24.2.0, SVG Export Plug-In . SVG Version: 6.00 Build 0)  -->
<svg version="1.1" id="Layer_1" xmlns="http://www.w3.org/2000/svg" xmlns:xlink="http://www.w3.org/1999/xlink" x="0px" y="0px"
	 width="1920px" height="1080px" viewBox="0 0 1920 1080" style="enable-background:new 0 0 1920 1080;" xml:space="preserve">
<style type="text/css">
	.st0{fill:#8BAC54;stroke:#8BAC54;stroke-miterlimit:10;}
	.st1{fill:#8BAC54;stroke:#759246;stroke-width:5;stroke-miterlimit:10;}
	.st2{fill:#68813D;stroke:#69823E;stroke-width:5;stroke-miterlimit:10;stroke-dasharray:12,0,12,0,12,0;}
	.st3{fill:#68813D;stroke:#68813D;stroke-width:5;stroke-miterlimit:10;}
	.st4{fill:#8BAC54;stroke:#69823E;stroke-width:5;stroke-miterlimit:10;stroke-dasharray:12,0,12,0,12,0;}
	.st5{fill:none;}
</style>
<g id="Layer_2">
	<rect x="-190" y="618.4" class="st0" width="2280" height="844.21"/>
</g>
<path class="st1" d="M326.69,633.38c0,0,15.1-12.28,37.74-9.81C526.71,641.3,499.54,446.9,499.54,446.9S460.16,534.7,390.68,569.6
	c0,0,84.04-50.23-13.69-166.98c0,0,23.21,70.59-42.8,140.64c0,0,6.92-19.11-38.91-77.93c0,0-52.3,52.53-20.34,93.55
	c0,0-9.65-27.37-40.56-30.39c0,0-12.44-13.98-10.43-24.62c0,0-22.36,25.47-6.93,65.06c12.28,31.51,23.83,41.6,23.83,41.6
	s-17.83,11.38-74.75-27.56c-28.08-19.2,6.42-78.75,6.42-78.75s-89.18,25.95-56.57,111.15c10.23,26.74,25.26,38.32,40.04,42.33
	c24.64,6.7,48.61-7.59,48.61-7.59s-95.82-42.78-113.97,35.64c0,0-29.63,50.05-58.54,37.71c0,0,41.25,29.44,88.71-5.34
	s68.97-14.01,102.8-43.74c0,0-0.05,27.27,54.14,44.42c0,0-16.77-33.73,2.49-58.18c0,0,22.72,1.54,35.19-28.5L326.69,633.38z"/>
<path class="st2" d="M412.15,637.65c0,0,51.3,37.31,101.3,35.25c0,0,31.86,50.01,83.43,55.57c0,0,48.92,26.6,114.5,29.28
	c0,0-36.24-30.85-51.33-51.01c-16.21-21.65-84-27.7-84-27.7s87.69-42.86,94.24-68.18c0,0-130.95-26.52-156.4,32.41
	c0,0,33.5-22.03-24.47-164.36c0,0-53.23,76.65-48.35,133.18c0,0-50.88-37.35-188.58,42.75C252.5,654.85,365.9,664.56,412.15,637.65z
	"/>
<path class="st3" d="M-40.02,575.8c0,0-17.25,9.01-38.94,2.04c-155.43-49.91-167.8,145.98-167.8,145.98s56.19-78.11,131.26-98.37
	c0,0-92.4,32.35-20.08,166.33c0,0-8.58-73.81,70.14-129.2c0,0-10.61,17.33,22.5,84.15c0,0,61.77-40.98,38.69-87.57
	c0,0,3.96,28.75,33.65,37.9c0,0,9.39,16.19,5.28,26.21c0,0,27.02-20.47,19.84-62.35c-5.71-33.33-15-45.53-15-45.53
	s19.75-7.57,67.71,41.99c23.65,24.44-22.08,75.86-22.08,75.86s92.57-7.54,77.71-97.55c-4.66-28.25-17.06-42.6-30.74-49.5
	c-22.8-11.5-49.14-2.31-49.14-2.31s85.3,61.13,118.8-12.06c0,0,39.07-43.09,64.92-25.2c0,0-34.5-37.11-87.98-12.56
	c-53.48,24.55-70.37-0.11-109.48,22.24c0,0,5.52-26.71-44.14-54.38c0,0,9.67,36.41-14.11,56.5c0,0-21.95-6.07-40.19,20.87
	L-40.02,575.8z"/>
<path class="st2" d="M1840.21,637.65c0,0,51.3,37.31,101.3,35.25c0,0,31.86,50.01,83.43,55.57c0,0,48.92,26.6,114.5,29.28
	c0,0-36.24-30.85-51.33-51.01c-16.21-21.65-84-27.7-84-27.7s87.69-42.86,94.24-68.18c0,0-130.95-26.52-156.4,32.41
	c0,0,33.5-22.03-24.47-164.36c0,0-53.23,76.65-48.35,133.18c0,0-50.88-37.35-188.58,42.75
	C1680.56,654.85,1793.96,664.56,1840.21,637.65z"/>
<path class="st1" d="M779.84,582.29c0,0-19.28-2.66-32.92-20.91c-97.73-130.76-221.35,21.7-221.35,21.7s91.06-31.08,163.98-4.08
	c0,0-94.05-27.19-112.77,123.9c0,0,35.79-65.12,132.04-64.63c0,0-18.69,7.97-30.45,81.61c0,0,74.09,2.41,82.28-48.93
	c0,0-13.44,25.73,5.45,50.39c0,0-1.74,18.64-10.89,24.42c0,0,33.88-1.02,52.31-39.31c14.66-30.47,14.17-45.8,14.17-45.8
	s20.48,5.28,30.84,73.46c5.11,33.63-61.96,49.02-61.96,49.02s79.8,47.51,119.87-34.44c12.58-25.73,10.79-44.61,3.64-58.16
	c-11.91-22.59-38.7-30.37-38.7-30.37s34.08,99.25,103.79,59.03c0,0,56.81-12.47,67.51,17.09c0,0-6.61-50.24-64.41-61.23
	c-57.81-10.99-57.28-40.88-102.1-45.34c0,0,19.98-18.57-4.45-69.89c0,0-13.23,35.27-44.25,37.86c0,0-14.37-17.66-44.85-6.29
	L779.84,582.29z"/>
<path class="st2" d="M957.8,609.18c0,0-40.96-48.43-90.02-58.32c0,0-19.06-56.15-67.83-73.81c0,0-41.19-37.47-104.26-55.66
	c0,0,27.87,38.58,37.74,61.75c10.6,24.88,75,46.88,75,46.88s-95.37,20.78-107.75,43.82c0,0,120.89,56.89,159.62,5.7
	c0,0-37.77,13.43-15.31,165.46c0,0,69.93-61.8,78.62-117.87c0,0,40.54,48.38,193.34,3.3C1116.95,630.43,1009.12,594.04,957.8,609.18
	z"/>
<path class="st1" d="M86.38,732.95c0,0,18.1,7.15,27.03,28.11c63.98,150.18,220.19,31.33,220.19,31.33s-95.83,8.64-160.28-34.87
	c0,0,84.94,48.69,138.91-93.67c0,0-50.19,54.79-143.59,31.52c0,0,20.05-3.32,48.91-72.08c0,0-71.41-19.89-91.53,28.06
	c0,0,19.15-21.81,6.64-50.24c0,0,6.1-17.7,16.36-21.14c0,0-33.16-7.03-60.13,25.8c-21.46,26.13-24.61,41.14-24.61,41.14
	s-18.65-9.98-12.56-78.67c3-33.88,71.81-32.95,71.81-32.95s-66.28-65.06-124.61,5.08C-19.4,562.38-22.14,581.14-18.4,596
	c6.22,24.76,30.41,38.67,30.41,38.67s-9.6-104.5-86.86-81.93c0,0-58.15-1.34-61.54-32.59c0,0-5.48,50.38,48.08,74.74
	c53.56,24.37,45.98,53.28,88.46,68.23c0,0-23.81,13.31-12.23,68.96c0,0,21.2-31.14,51.96-26.31c0,0,9.78,20.56,42.08,16.74
	L86.38,732.95z"/>
<path class="st1" d="M1690.48,582.29c0,0-19.28-2.66-32.92-20.91c-97.73-130.76-221.35,21.7-221.35,21.7s91.06-31.08,163.98-4.08
	c0,0-94.05-27.19-112.77,123.9c0,0,35.79-65.12,132.04-64.63c0,0-18.69,7.97-30.45,81.61c0,0,74.09,2.41,82.28-48.93
	c0,0-13.44,25.73,5.45,50.39c0,0-1.74,18.64-10.89,24.42c0,0,33.88-1.02,52.31-39.31c14.66-30.47,14.17-45.8,14.17-45.8
	s20.48,5.28,30.84,73.46c5.11,33.63-61.96,49.02-61.96,49.02s79.8,47.51,119.87-34.44c12.58-25.73,10.79-44.61,3.64-58.16
	c-11.91-22.59-38.7-30.37-38.7-30.37s34.08,99.25,103.79,59.03c0,0,56.81-12.47,67.51,17.09c0,0-6.61-50.24-64.41-61.23
	s-57.28-40.88-102.1-45.34c0,0,19.98-18.57-4.45-69.89c0,0-13.23,35.27-44.25,37.86c0,0-14.37-17.66-44.85-6.29L1690.48,582.29z"/>
<path class="st1" d="M1106.69,682.85c0,0,15.1-12.28,37.74-9.81c162.28,17.73,135.11-176.67,135.11-176.67
	s-39.38,87.79-108.87,122.69c0,0,84.04-50.23-13.69-166.98c0,0,23.21,70.59-42.8,140.64c0,0,6.92-19.11-38.91-77.93
	c0,0-52.3,52.53-20.34,93.55c0,0-9.65-27.37-40.56-30.39c0,0-12.44-13.98-10.43-24.62c0,0-22.36,25.47-6.93,65.06
	c12.28,31.51,23.83,41.6,23.83,41.6s-17.83,11.38-74.75-27.56c-28.08-19.2,6.42-78.75,6.42-78.75s-89.18,25.95-56.57,111.15
	c10.23,26.74,25.26,38.32,40.04,42.33c24.64,6.7,48.61-7.59,48.61-7.59s-95.82-42.78-113.97,35.64c0,0-29.63,50.05-58.54,37.71
	c0,0,41.25,29.44,88.71-5.34c47.47-34.77,68.97-14.01,102.8-43.74c0,0-0.05,27.27,54.14,44.42c0,0-16.77-33.73,2.49-58.18
	c0,0,22.72,1.54,35.19-28.5L1106.69,682.85z"/>
<path class="st3" d="M1303.9,716.82c0,0,18.6,5.73,29.12,25.94c75.38,144.8,221.95,14.26,221.95,14.26s-94.88,16-162.49-22.4
	c0,0,88.44,42,131.27-104.11c0,0-45.82,58.5-140.73,42.51c0,0,19.73-4.86,43.2-75.64c0,0-72.73-14.32-89.09,35.03
	c0,0,17.41-23.23,2.74-50.61c0,0,4.72-18.11,14.68-22.34c0,0-33.6-4.45-57.96,30.36c-19.38,27.71-21.36,42.92-21.36,42.92
	s-19.37-8.51-18.6-77.47c0.38-34.01,69.05-38.39,69.05-38.39s-71.1-59.75-123.85,14.68c-16.56,23.36-17.84,42.28-12.97,56.81
	c8.11,24.21,33.3,36.21,33.3,36.21s-17.64-103.45-92.92-74.99c0,0-58.08,3.15-63.87-27.75c0,0-1.58,50.65,53.7,70.81
	c55.28,20.16,49.95,49.57,93.46,61.2c0,0-22.71,15.11-6.88,69.7c0,0,18.74-32.68,49.77-30.24c0,0,11.33,19.75,43.25,13.44
	L1303.9,716.82z"/>
<path class="st4" d="M1390.55,615.39c0,0,53.55,34,103.32,28.79c0,0,34.95,47.89,86.77,50.19c0,0,50.5,23.46,116.12,21.99
	c0,0-38.12-28.5-54.45-47.66c-17.54-20.58-85.58-22.35-85.58-22.35s84.81-48.31,89.75-73.99c0,0-132.37-18.2-154.04,42.22
	c0,0,32.04-24.1-34.79-162.49c0,0-48.29,79.86-39.84,135.97c0,0-53.14-34.06-185.51,54.57
	C1232.3,642.63,1346.09,645.16,1390.55,615.39z"/>
<rect x="641.24" y="1044.53" class="st5" width="1.05" height="111.82"/>
</svg>
