<?xml version="1.0" encoding="utf-8"?>
<!-- Generator: Adobe Adobe Illustrator 24.2.0, SVG Export Plug-In . SVG Version: 6.00 Build 0)  -->
<svg version="1.1" id="Layer_1" xmlns="http://www.w3.org/2000/svg" xmlns:xlink="http://www.w3.org/1999/xlink" x="0px" y="0px"
	 width="1000px" height="1000px" viewBox="0 0 1000 1000" style="enable-background:new 0 0 1000 1000;" xml:space="preserve">
<style type="text/css">
	.st0{fill:#FFFFFF;}
	.st1{fill:#FF8BA0;}
	.st2{fill:#FFCCCB;stroke:#FF8BA0;stroke-width:5;stroke-miterlimit:10;}
	.st3{fill:#FFDCD1;stroke:#FF8BA0;stroke-width:5;stroke-miterlimit:10;}
</style>
<path class="st0" d="M105.44,361.25c0,0,48.27-230.43,149.58-262.2c0,0,7.69-6.34,129.5,142.07c0,0,216.16-2.58,323.96,28.22
	c0,0,77.41-104.63,148.69-131.81c58.52-22.31,70.88,117.67,98.73,230.22c31.51,127.37,74.6,550.99-427.28,535.51
	C528.62,903.26-45.66,844.45,105.44,361.25z"/>
<circle class="st1" cx="303.55" cy="460.78" r="21.26"/>
<circle class="st1" cx="645.84" cy="494.47" r="21.26"/>
<line class="st2" x1="851.19" y1="498.32" x2="991.06" y2="493.85"/>
<line class="st2" x1="851.46" y1="558.24" x2="987.77" y2="589.96"/>
<line class="st2" x1="25.31" y1="411.77" x2="159.36" y2="451.96"/>
<line class="st3" x1="10.87" y1="507.73" x2="150.81" y2="505.95"/>
</svg>
