<?xml version="1.0" encoding="utf-8"?>
<!-- Generator: Adobe Adobe Illustrator 24.2.0, SVG Export Plug-In . SVG Version: 6.00 Build 0)  -->
<svg version="1.1" xmlns="http://www.w3.org/2000/svg" xmlns:xlink="http://www.w3.org/1999/xlink" x="0px" y="0px" width="1920px"
	 height="1080px" viewBox="0 0 1920 1080" style="enable-background:new 0 0 1920 1080;" xml:space="preserve">
<style type="text/css">
	.st0{display:none;}
	.st1{display:inline;fill:#FFDCD1;}
	.st2{fill:#FFA8B5;stroke:#FF8BA0;stroke-width:5;stroke-miterlimit:10;stroke-dasharray:12,0,12,0,12,0;}
	.st3{fill:#FFCCCB;}
	.st4{fill:#FFA8B5;}
	.st5{fill:#8BAC54;stroke:#69823E;stroke-width:5;stroke-miterlimit:10;stroke-dasharray:12,0,12,0,12,0;}
	.st6{fill:#FF8BA0;}
	.st7{fill:#FF8BA0;stroke:#69823E;stroke-miterlimit:10;}
	.st8{fill:#FFA8B5;stroke:#FF90A4;stroke-width:5;stroke-miterlimit:10;}
	.st9{fill:#8BAC54;stroke:#759246;stroke-width:5;stroke-miterlimit:10;}
	.st10{display:inline;fill:#8BAC54;}
	.st11{display:inline;fill:#FFA8B5;stroke:#FF8BA0;stroke-width:5;stroke-miterlimit:10;stroke-dasharray:12,0,12,0,12,0;}
	.st12{display:inline;}
	.st13{display:inline;fill:#FFA8B5;stroke:#FF90A4;stroke-width:5;stroke-miterlimit:10;}
	.st14{display:inline;fill:#FFCCCB;}
	.st15{display:inline;fill:#FFFFFF;}
	.st16{display:inline;fill:#FFCCCB;stroke:#FFDCD1;stroke-width:5;stroke-miterlimit:10;}
	.st17{display:inline;fill:#FFDCD1;stroke:#FFDCD1;stroke-width:5;stroke-miterlimit:10;}
</style>
<g id="Layer_66" class="st0">
	<rect x="-132.16" y="-39.9" class="st1" width="2257.24" height="1320"/>
</g>
<g id="half_strbb">
	<g id="Layer_2">
	</g>
	<g id="Layer_3">
	</g>
	<g id="Layer_5">
	</g>
	<g id="Layer_4">
	</g>
</g>
<g id="full_strbb">
	<g id="Layer_5_copy">
	</g>
</g>
<g id="Layer_10" class="st0">
</g>
<g id="Layer_9">
</g>
<g id="half_strbb_copy_4" class="st0">
	<path class="st11" d="M1932.73,1168.89c0,0,72.14,23.07,83.5-177.41c0,0,23.95-142.92-206.02-65.73
		C1642,982.21,1876.71,1182.29,1932.73,1168.89z"/>
	<g id="Layer_2_copy_4" class="st12">
		<path class="st3" d="M1818.38,923.07l21.96,34.73c0,0-11.86,5.91-14.33,16.34l-50.43-11.59l43.73,20.04c0,0-5.41,22.89-0.74,34.66
			l-6.26-0.12l-6.2,6.22l-25.94,9.61l42.07-4.46c0,0,1.8,10.41,17.3,27.42l-4.86,9.06l0,0l-22.09,20.46c0,0,34-12.55,34.38-15.99
			l36.06,28.94l-17.1,26.94l25.73-19.76l40.37,25.32l12.85-63.49l53.95,5.94l-51.74-15.56c0,0,2.85-9.42,6.42-42.02l52.83-10.34
			l-53.62,0.05c0,0,2.49-13.38-1.39-26.55c-0.7-2.37,40.36-44.22,39.2-46.5c-0.94-1.85-44.02,35.84-45.34,34.14
			c-6.05-7.82-16.32-13.55-33.5-13.01l3.35-50.42l-50.29,14.45L1818.38,923.07z"/>
	</g>
	<g id="Layer_3_copy_4" class="st12">
		<path class="st4" d="M1852.24,970.66c0,0,22.57,9.73,51.13-6.05c0,0,60.19-3.13,12.7,127.75
			C1916.07,1092.37,1793.17,1021.06,1852.24,970.66z"/>
	</g>
	<g id="Layer_5_copy_10" class="st12">
		<path class="st5" d="M1801.34,926.56c0,0,37.02,1.74,60.39-13.2c0,0,31.88,12.71,58.52,0.62c0,0,32.33-2.22,64.76-19.5
			c0,0-27.64-3.18-41.57-7.67c-14.96-4.82-49.57,11.61-49.57,11.61s27.99-43.21,22.75-56.02c0,0-71.76,25.32-64.49,57.99
			c0,0,8.82-18.96-66.18-64.32c0,0-0.22,48.16,20.84,71.28c0,0-36.84-1.88-76.54,71.52
			C1730.25,978.88,1788.01,951.21,1801.34,926.56z"/>
	</g>
	<g id="Layer_4_copy_4" class="st12">
		<path class="st6" d="M1884.2,986.7c0,0-27.11,18,19.94,74.33C1904.13,1061.03,1914.01,983.21,1884.2,986.7z"/>
	</g>
</g>
<g id="half_strbb_copy_8" class="st0">
	<path class="st11" d="M1004.86,831.66c0,0-74.22-15.08-63.68,185.45c0,0-8.25,144.68,211.96,42.9
		C1314.19,985.57,1059.08,812.24,1004.86,831.66z"/>
	<g id="Layer_2_copy_8" class="st12">
		<path class="st3" d="M1145.3,1063.57l-25.61-32.13c0,0,11.14-7.16,12.47-17.8l51.39,6.03l-45.65-15.16c0,0,2.88-23.34-3.04-34.54
			l6.23-0.56l5.49-6.86l24.74-12.38l-41.34,9.01c0,0-2.93-10.15-20.19-25.37l3.84-9.54l0,0l19.73-22.74c0,0-32.43,16.18-32.43,19.64
			l-39-24.84l14.06-28.64l-23.42,22.45l-42.89-20.77l-5.86,64.51l-54.27-0.03l53.13,9.83c0,0-1.8,9.67-1.8,42.47l-51.39,16.03
			l53.3-5.89c0,0-1.02,13.57,4.28,26.24c0.95,2.28-35.31,48.35-33.9,50.49c1.14,1.74,39.86-40.42,41.35-38.88
			c6.87,7.12,17.7,11.69,34.72,9.29l2.16,50.48l48.42-19.84L1145.3,1063.57z"/>
	</g>
	<g id="Layer_3_copy_8" class="st12">
		<path class="st4" d="M1106.45,1019.94c0,0-23.49-7.21-50.16,11.58c0,0-59.49,9.67-26.54-125.61
			C1029.75,905.91,1159.69,963.41,1106.45,1019.94z"/>
	</g>
	<g id="Layer_5_copy_15" class="st12">
		<path class="st5" d="M1161.85,1058.24c0,0-36.99,2.3-58.59,19.7c0,0-33.07-9.16-58.24,5.75c0,0-31.9,5.73-62.25,26.44
			c0,0,27.82,0.15,42.16,3.09c15.4,3.16,48.01-16.94,48.01-16.94s-23.11,46-16.52,58.17c0,0,68.58-32.98,57.79-64.67
			c0,0-6.7,19.8,72.79,56.73c0,0-5.02-47.9-28.48-68.58c0,0,36.82-2.14,68.3-79.43C1226.82,998.49,1172.43,1032.28,1161.85,1058.24z
			"/>
	</g>
	<g id="Layer_4_copy_8" class="st12">
		<path class="st6" d="M1072.94,1007.48c0,0,24.99-20.84-27.91-71.72C1045.03,935.76,1043.69,1014.2,1072.94,1007.48z"/>
	</g>
</g>
<g id="half_strbb_copy_7" class="st0">
	<path class="st11" d="M302.69,1206.42c0,0,19.21,110,333.64-43.7c0,0,236.11-89.64-55.12-314.02
		C368.21,684.6,240.01,1147.24,302.69,1206.42z"/>
	<g id="Layer_2_copy_7" class="st12">
		<path class="st3" d="M591.48,856.73l-36.42,56.7c0,0-17.95-9.95-35.73-4.33l-20.36-73.1l2.4,71.75c0,0-38.99,12.38-53.44,28.12
			l-4.54-7.96l-14.16-2.59L395,900.79l38.53,49.14c0,0-14.52,10.99-28.78,44.72l-17.49,1.48l0,0l-47.87-10.62
			c0,0,44.8,32.22,50.33,29.81l-16.96,69.57l-53.99,1.08l49.55,15.77l-8.17,71.95l106.55-37.04l31.62,72.79l-15.3-78.07
			c0,0,16.51-4.31,68.95-27.14l55.62,57.74l-40.53-67.35c0,0,22.28-8.08,39.46-24c3.09-2.87,97.9,13.68,100.51,10.31
			c2.11-2.74-87.88-25.3-86.29-28.37c7.37-14.16,8.36-31.86-5.42-53.01l79.44-38.04l-59.98-51.1L591.48,856.73z"/>
	</g>
	<g id="Layer_3_copy_7" class="st12">
		<path class="st4" d="M544.41,939.17c0,0,2.18,36.52,47.79,59.19c0,0,50.18,73.02-185.33,123
			C406.87,1121.36,422.96,907.15,544.41,939.17z"/>
	</g>
	<g id="Layer_5_copy_14" class="st12">
		<path class="st5" d="M573.3,838.24c0,0,25.27,47.99,65.69,64.84c0,0,4.66,50.71,43.19,74.07c0,0,27.78,38.78,78.6,65.06
			c0,0-16.01-37.4-19.66-58.68c-3.93-22.84-55.1-52.58-55.1-52.58s87.03-1.03,102.63-18.34c0,0-92.75-68.98-137.12-32.46
			c0,0,35.57-4.8,48.21-137.07c0,0-73.65,40.07-93.02,85.92c0,0-24.92-47.87-166.85-36.28C439.86,792.73,525.62,842.14,573.3,838.24
			z"/>
	</g>
	<g id="Layer_4_copy_7" class="st12">
		<path class="st6" d="M544.04,992.77c0,0-47.91-18.99-98.36,87.33C445.67,1080.11,571.86,1027.32,544.04,992.77z"/>
	</g>
</g>
<g id="half_strbb_copy_9" class="st0">
	<path class="st11" d="M99.98,701.83c0,0,72.14,23.07,83.5-177.41c0,0,23.95-142.92-206.02-65.73
		C-190.75,515.15,43.96,715.23,99.98,701.83z"/>
	<g id="Layer_2_copy_9" class="st12">
		<path class="st3" d="M-14.37,456.01l21.96,34.73c0,0-11.86,5.91-14.33,16.34l-50.43-11.59l43.73,20.04c0,0-5.41,22.89-0.74,34.66
			l-6.26-0.12l-6.2,6.22l-25.94,9.61l42.07-4.46c0,0,1.8,10.41,17.3,27.42l-4.86,9.06h0l-22.09,20.46c0,0,34-12.55,34.38-15.99
			l36.06,28.94l-17.1,26.94l25.73-19.76l40.37,25.32l12.85-63.49l53.95,5.94l-51.74-15.56c0,0,2.85-9.42,6.42-42.02l52.83-10.34
			l-53.62,0.05c0,0,2.49-13.38-1.39-26.55c-0.7-2.37,40.36-44.22,39.2-46.5c-0.94-1.85-44.02,35.84-45.34,34.14
			c-6.05-7.82-16.32-13.55-33.5-13.01l3.35-50.42l-50.29,14.45L-14.37,456.01z"/>
	</g>
	<g id="Layer_3_copy_9" class="st12">
		<path class="st4" d="M19.49,503.6c0,0,22.57,9.73,51.13-6.05c0,0,60.19-3.13,12.7,127.75C83.32,625.31-39.58,554,19.49,503.6z"/>
	</g>
	<g id="Layer_5_copy_16" class="st12">
		<path class="st5" d="M-31.41,459.5c0,0,37.02,1.74,60.39-13.2c0,0,31.88,12.71,58.52,0.62c0,0,32.33-2.22,64.76-19.5
			c0,0-27.64-3.18-41.57-7.67c-14.96-4.82-49.57,11.61-49.57,11.61s27.99-43.21,22.75-56.02c0,0-71.76,25.32-64.49,57.99
			c0,0,8.82-18.96-66.18-64.32c0,0-0.22,48.16,20.84,71.28c0,0-36.84-1.88-76.54,71.52C-102.5,511.82-44.75,484.15-31.41,459.5z"/>
	</g>
	<g id="Layer_4_copy_9" class="st12">
		<path class="st6" d="M51.44,519.65c0,0-27.11,18,19.94,74.33C71.38,593.97,81.26,516.15,51.44,519.65z"/>
	</g>
</g>
<g id="half_strbb_copy_6" class="st0">
	<path class="st11" d="M1540.33,242.78c0,0-66.82-35.65-114,159.53c0,0-49.23,136.29,190.87,101.66
		C1792.8,478.65,1597.84,239.67,1540.33,242.78z"/>
	<g id="Layer_2_copy_6" class="st12">
		<path class="st3" d="M1608.67,505.15l-15.37-38.11c0,0,12.72-3.68,17.03-13.5l47.53,20.46l-39.41-27.57c0,0,9.43-21.54,6.95-33.97
			l6.13,1.24l7.22-5l27.24-4.8l-42.19-3.17c0,0,0.1-10.56-12.1-30.08l6.41-8.04l0,0l25.4-16.16c0,0-35.7,6.24-36.69,9.56
			l-30.28-34.95l21.66-23.43l-28.86,14.82l-35.17-32.15l-24.04,60.15l-52-15.54l48.11,24.6c0,0-4.49,8.75-13.86,40.19l-53.83,0.68
			l52.76,9.58c0,0-4.85,12.71-3.4,26.37c0.26,2.46-47.65,36.25-46.91,38.7c0.6,1.99,49.74-27.35,50.73-25.45
			c4.55,8.78,13.62,16.26,30.62,18.82l-12.35,49l52.07-5.18L1608.67,505.15z"/>
	</g>
	<g id="Layer_3_copy_6" class="st12">
		<path class="st4" d="M1583.9,452.25c0,0-20.46-13.62-51.38-3.23c0,0-59.77-7.73,10.45-127.96
			C1542.97,321.06,1651.07,413.28,1583.9,452.25z"/>
	</g>
	<g id="Layer_5_copy_13" class="st12">
		<path class="st5" d="M1626.06,504.77c0,0-36.11-8.36-61.78,2.14c0,0-29.08-18.22-57.46-11.12c0,0-32.21-3.62-67.21,7.55
			c0,0,26.62,8.09,39.52,15.01c13.85,7.43,50.85-2.52,50.85-2.52s-35.29,37.48-32.44,51.02c0,0,75.14-12.02,73.85-45.47
			c0,0-12.08,17.06,53.55,75.16c0,0,8.87-47.34-7.7-73.86c0,0,35.9,8.46,88.14-56.61C1705.39,466.07,1643.6,482.91,1626.06,504.77z"
			/>
	</g>
	<g id="Layer_4_copy_6" class="st12">
		<path class="st6" d="M1555.35,430.73c0,0,29.9-12.84-6.26-76.7C1549.09,354.03,1525.39,428.81,1555.35,430.73z"/>
	</g>
</g>
<g id="full_strbb_copy" class="st0">
	<path class="st13" d="M403.41,843.97c15.77-11.66,118.46-26.28,117.53-424.6c-0.78-333.08-467.3,4.35-507.46,172.16
		C-17.93,722.79,334.73,894.74,403.41,843.97z"/>
	<path class="st14" d="M225.18,431.51c0,0,21.13-0.31,20.9-36.08c0,0-21.55,5.72-27.69,19.33
		C212.24,428.37,225.46,429.48,225.18,431.51z"/>
	<path class="st14" d="M331.54,379.29c0,0,20.33,5.76,30.37-28.57c0,0-22.28-0.7-32.07,10.57S332.4,377.42,331.54,379.29z"/>
	<path class="st14" d="M441.71,431.57c0,0,20.09-6.57,9.24-40.66c0,0-18.88,11.86-20.7,26.68
		C428.42,432.41,441.38,429.54,441.71,431.57z"/>
	<path class="st14" d="M461.39,540.78c0,0,19.18-8.88,4.41-41.46c0,0-17.36,13.99-17.43,28.92
		C448.29,543.17,460.82,538.81,461.39,540.78z"/>
	<path class="st14" d="M368.98,559.56c0,0,20.18-6.26,9.86-40.52c0,0-19.05,11.57-21.11,26.36S368.69,557.53,368.98,559.56z"/>
	<path class="st14" d="M288.74,484.43c0,0,21.06-1.75,18.39-37.42c0,0-21.11,7.17-26.31,21.17
		C275.61,482.18,288.88,482.39,288.74,484.43z"/>
	<path class="st14" d="M466.72,668.5c0,0,12.68-11.4,8.58-39.84c0,0-12.33,15.94-14.52,30.05
		C458.59,672.82,466.67,666.72,466.72,668.5z"/>
	<path class="st14" d="M138.15,499.95c0,0,16.12-5.57,23.41-33.35c0,0-17.56,9.88-25.07,22.02
		C128.98,500.76,138.79,498.3,138.15,499.95z"/>
	<path class="st14" d="M384,676.08c0,0,19.83-7.32,7.71-40.98c0,0-18.42,12.56-19.69,27.44C370.76,677.42,383.6,674.07,384,676.08z"
		/>
	<path class="st14" d="M282.64,629.48c0,0,20.65-4.51,13.29-39.52c0,0-19.98,9.89-23.29,24.46
		C269.34,628.98,282.52,627.43,282.64,629.48z"/>
	<path class="st14" d="M207.63,571.48c0,0,21.12-0.81,20.03-36.57c0,0-21.4,6.23-27.22,19.98
		C194.62,568.65,207.87,569.45,207.63,571.48z"/>
	<path class="st14" d="M405.69,787.8c0,0,19.83-7.32,7.71-40.98c0,0-18.42,12.56-19.69,27.44
		C392.44,789.14,405.29,785.79,405.69,787.8z"/>
	<path class="st14" d="M284.99,764.36c0,0,20.14-6.41,9.57-40.58c0,0-18.97,11.71-20.92,26.51S284.67,762.34,284.99,764.36z"/>
	<path class="st14" d="M177.5,691.75c0,0,20.95-2.77,16.55-38.27c0,0-20.73,8.19-25.25,22.42S177.55,689.7,177.5,691.75z"/>
	<path class="st14" d="M77.73,634.72c0,0,21.13-0.32,20.88-36.09c0,0-21.54,5.73-27.68,19.34S78.02,632.69,77.73,634.72z"/>
	<g id="Layer_5_copy_2" class="st12">
		<path class="st9" d="M162.83,753.59c0,0-19.32-2.37-33.23-20.42c-99.66-129.29-221,24.99-221,24.99s90.59-32.44,163.9-6.52
			c0,0-94.45-25.79-110.92,125.57c0,0,34.82-65.65,131.07-66.59c0,0-18.57,8.25-29.23,82.06c0,0,74.11,1.31,81.54-50.15
			c0,0-13.05,25.92,6.2,50.3c0,0-1.46,18.66-10.53,24.58c0,0,33.86-1.52,51.72-40.08c14.21-30.69,13.48-46,13.48-46
			s20.56,4.97,31.93,72.99c5.61,33.55-61.23,49.93-61.23,49.93s80.5,46.32,119.34-36.22c12.19-25.91,10.12-44.76,2.78-58.21
			c-12.24-22.41-39.15-29.79-39.15-29.79s35.55,98.73,104.66,57.48c0,0,56.62-13.31,67.75,16.09c0,0-7.35-50.14-65.32-60.27
			s-57.89-40.02-102.77-43.81c0,0,19.7-18.86-5.49-69.82c0,0-12.7,35.46-43.68,38.52c0,0-14.63-17.45-44.94-5.63L162.83,753.59z"/>
	</g>
</g>
<g id="full_strbb_copy_6" class="st0">
	<path class="st13" d="M1395.62,419.57c-12.71,1.15-75.59-29.7-204.06,220.07c-107.43,208.86,266.02,179.36,343.1,89.93
		C1594.95,659.62,1450.95,414.54,1395.62,419.57z"/>
	<path class="st14" d="M1362.95,747.28c0,0-12.07-8.04-23.52,14.45c0,0,14.05,4.82,21.94-1.31
		C1369.26,754.29,1362.13,748.44,1362.95,747.28z"/>
	<path class="st14" d="M1285.81,738.54c0,0-9.65-11.53-26.45,6.06c0,0,12.39,9.12,21.58,5.88
		C1290.14,747.22,1284.73,739.37,1285.81,738.54z"/>
	<path class="st14" d="M1240.36,662.88c0,0-13.5-3.71-18.4,21.86c0,0,14.53-0.07,20.36-8.64
		C1248.16,667.53,1239.89,664.27,1240.36,662.88z"/>
	<path class="st14" d="M1264.59,586.83c0,0-13.74-1.91-15.93,24.24c0,0,14.36-1.99,19.24-11.32
		C1272.78,590.43,1264.27,588.28,1264.59,586.83z"/>
	<path class="st14" d="M1323,611.07c0,0-13.46-3.94-18.7,21.53c0,0,14.54,0.18,20.49-8.28
		C1330.74,615.85,1322.51,612.45,1323,611.07z"/>
	<path class="st14" d="M1344.11,689.38c0,0-12.49-7.11-22.53,16.26c0,0,14.27,3.73,21.75-3
		C1350.81,695.9,1343.36,690.6,1344.11,689.38z"/>
	<path class="st14" d="M1302.94,504.78c0,0-10.87,2.2-17.76,21.6c0,0,12.14-5.18,17.95-13.16
		C1308.94,505.24,1302.39,505.91,1302.94,504.78z"/>
	<path class="st14" d="M1434.4,738.34c0,0-10.93-2.79-24.06,11.76c0,0,13.14,0.66,21.33-4.02
		C1439.86,741.4,1433.5,739.13,1434.4,738.34z"/>
	<path class="st14" d="M1352.23,532.26c0,0-13.6-3.14-17.64,22.66c0,0,14.5-0.69,20.03-9.51S1351.81,533.67,1352.23,532.26z"/>
	<path class="st14" d="M1394.53,600.93c0,0-13.15-5.22-20.33,19.57c0,0,14.51,1.59,21.11-6.24
		C1401.9,606.43,1393.94,602.26,1394.53,600.93z"/>
	<path class="st14" d="M1418.22,666.47c0,0-12.22-7.72-23.19,15.09c0,0,14.14,4.44,21.89-1.91
		C1424.67,673.32,1417.43,667.66,1418.22,666.47z"/>
	<path class="st14" d="M1376.13,453.85c0,0-13.6-3.14-17.64,22.66c0,0,14.5-0.69,20.03-9.51S1375.71,455.27,1376.13,453.85z"/>
	<path class="st14" d="M1436.89,515.56c0,0-13.48-3.83-18.56,21.69c0,0,14.53,0.06,20.43-8.45
		C1444.65,520.28,1436.41,516.95,1436.89,515.56z"/>
	<path class="st14" d="M1474.24,602.91c0,0-12.76-6.43-21.77,17.51c0,0,14.39,2.95,21.56-4.2
		C1481.2,609.07,1473.55,604.17,1474.24,602.91z"/>
	<path class="st14" d="M1512.26,677.49c0,0-12.07-8.03-23.51,14.46c0,0,14.05,4.81,21.94-1.32
		C1518.57,684.5,1511.44,678.65,1512.26,677.49z"/>
	<g id="Layer_5_copy_11" class="st12">
		<path class="st9" d="M1502.57,569.9c0,0,10.17,9.01,12.2,25.73c14.56,119.79,133.23,70.47,133.23,70.47s-61.8-14.99-94.92-59.78
			c0,0,45.13,52.95,103.47-35.41c0,0-40.97,27.54-95.78-9.38c0,0,13.19,2.07,43.13-39.99c0,0-41.54-29.7-62.42-0.37
			c0,0,15.79-11.15,12.78-33.91c0,0,6.87-11.12,13.92-11.29c0,0-19.67-12.24-42.27,4.95c-17.98,13.68-22.54,23.55-22.54,23.55
			s-10.03-11.12,5.56-58.15c7.69-23.19,50.84-7.41,50.84-7.41s-30.58-60.37-79.31-23.82c-15.29,11.47-20.23,24.08-20.42,35.36
			c-0.32,18.8,12.52,33.91,12.52,33.91s11.85-75.67-40.65-76.77c0,0-36.37-13.73-33.15-36.47c0,0-12.07,34.26,17.47,63.19
			c29.54,28.93,19.82,47.61,44,67.48c0,0-17.26,4.14-19.51,45.86c0,0,18.68-17.26,37.21-7.1c0,0,2.63,16.63,23.62,21.03
			L1502.57,569.9z"/>
	</g>
</g>
<g id="half_strbb_copy_3" class="st0">
	<path class="st11" d="M1929.67,616.59c0,0,105.65,1.77,40.09-270.58c0,0-25.56-200.54-301.65-4.84
		C1466.19,484.3,1860.25,657.03,1929.67,616.59z"/>
	<g id="Layer_2_copy_3" class="st12">
		<path class="st3" d="M1677.96,334.29l43.32,37.55c0,0-13.46,12.66-12.56,27.59l-72.03,4.82l66.47,9.17c0,0,1.99,32.74,12.97,46.59
			l-8.41,2.36l-5.78,10.8l-30.77,23.28l54.4-22.89c0,0,6.6,13.18,34.15,29.65l-2.84,14.06l0,0l-21.27,36.22
			c0,0,40.36-30.46,39.48-35.2l59.82,24.14l-11.99,42.86l26.4-36.76l64.11,17.56l-8.4-89.97l74.45-13.78l-75.37,0.06
			c0,0,0.01-13.72-8.35-58.71l66.41-35.08l-71.6,21.66c0,0-2.06-18.87-12.55-34.9c-1.89-2.89,36.1-75.31,33.63-77.89
			c-2.01-2.09-44.37,65.59-46.8,63.86c-11.24-8.01-27.25-11.52-49.99-3.89l-15.83-68.69l-61.36,39.55L1677.96,334.29z"/>
	</g>
	<g id="Layer_3_copy_3" class="st12">
		<path class="st4" d="M1742.35,384.22c0,0,34.06,3.9,65.85-28.66c0,0,79.13-28.42,68.4,165.52
			C1876.61,521.08,1683.74,475.33,1742.35,384.22z"/>
	</g>
	<g id="Layer_5_copy_9" class="st12">
		<path class="st5" d="M1656.61,345.82c0,0,50.15-12.58,75.34-41.95c0,0,47.7,4.13,78.42-22.73c0,0,42.29-15.99,78.65-52.12
			c0,0-38.2,6.89-58.62,6.5c-21.93-0.42-61.54,35.46-61.54,35.46s19.98-68.98,7.83-83.99c0,0-85.65,62.71-62.78,103.43
			c0,0,4.15-28.87-114.29-59.26c0,0,19.09,64.42,56.54,86.81c0,0-49.96,12.32-73.44,126.35
			C1582.72,444.32,1648.72,384.11,1656.61,345.82z"/>
	</g>
	<g id="Layer_4_copy_3" class="st12">
		<path class="st6" d="M1791.49,392.79c0,0-28.96,34.95,56.56,91.25C1848.05,484.04,1829.9,376.11,1791.49,392.79z"/>
	</g>
</g>
<g id="half_strbb_copy_5" class="st0">
	<path class="st11" d="M79.87,501.02c0,0,72.14,23.07,83.5-177.41c0,0,23.95-142.92-206.02-65.73
		C-210.86,314.34,23.85,514.42,79.87,501.02z"/>
	<g id="Layer_2_copy_5" class="st12">
		<path class="st3" d="M-34.48,255.2l21.96,34.73c0,0-11.86,5.91-14.33,16.34l-50.43-11.59l43.73,20.04c0,0-5.41,22.89-0.74,34.66
			l-6.26-0.12l-6.2,6.22l-25.94,9.61l42.07-4.46c0,0,1.8,10.41,17.3,27.42l-4.86,9.06h0l-22.09,20.46c0,0,34-12.55,34.38-15.99
			l36.06,28.94l-17.1,26.94l25.73-19.76l40.37,25.32l12.85-63.49l53.95,5.94l-51.74-15.56c0,0,2.85-9.42,6.42-42.02l52.83-10.34
			l-53.62,0.05c0,0,2.49-13.38-1.39-26.55c-0.7-2.37,40.36-44.22,39.2-46.5c-0.94-1.85-44.02,35.84-45.34,34.14
			c-6.05-7.82-16.32-13.55-33.5-13.01l3.35-50.42l-50.29,14.45L-34.48,255.2z"/>
	</g>
	<g id="Layer_3_copy_5" class="st12">
		<path class="st4" d="M-0.62,302.79c0,0,22.57,9.73,51.13-6.05c0,0,60.19-3.13,12.7,127.75C63.21,424.5-59.69,353.19-0.62,302.79z"
			/>
	</g>
	<g id="Layer_5_copy_12" class="st12">
		<path class="st5" d="M-51.52,258.69c0,0,37.02,1.74,60.39-13.2c0,0,31.88,12.71,58.52,0.62c0,0,32.33-2.22,64.76-19.5
			c0,0-27.64-3.18-41.57-7.67c-14.96-4.82-49.57,11.61-49.57,11.61s27.99-43.21,22.75-56.02c0,0-71.76,25.32-64.49,57.99
			c0,0,8.82-18.96-66.18-64.32c0,0-0.22,48.16,20.84,71.28c0,0-36.84-1.88-76.54,71.52C-122.61,311.01-64.86,283.34-51.52,258.69z"
			/>
	</g>
	<g id="Layer_4_copy_5" class="st12">
		<path class="st6" d="M31.33,318.83c0,0-27.11,18,19.94,74.33C51.27,393.16,61.15,315.34,31.33,318.83z"/>
	</g>
</g>
<g id="full_strbb_copy_5" class="st0">
	<path class="st13" d="M780.51,1116.79c18.83,5.49,92.67,78.33,409.02-163.7c264.54-202.39-286.54-369.17-444.38-299.47
		C621.7,708.14,698.51,1092.9,780.51,1116.79z"/>
	<path class="st14" d="M1000.72,725.12c0,0,13.05,16.63,41.37-5.23c0,0-17.6-13.68-32.15-10.32
		C995.38,712.93,1002.51,724.12,1000.72,725.12z"/>
	<path class="st14" d="M1106.7,778.12c0,0,7.73,19.67,41.13,6.85c0,0-12.94-18.15-27.84-19.11
		C1105.09,764.9,1108.7,777.67,1106.7,778.12z"/>
	<path class="st14" d="M1131.84,897.44c0,0,17.4,12,37.95-17.28c0,0-20.87-7.84-33.77-0.31
		C1123.12,887.38,1133.25,895.95,1131.84,897.44z"/>
	<path class="st14" d="M1056.87,979.25c0,0,18.68,9.88,35.66-21.6c0,0-21.64-5.34-33.57,3.65S1058.09,977.61,1056.87,979.25z"/>
	<path class="st14" d="M985.95,917.11c0,0,17.21,12.26,38.21-16.7c0,0-20.75-8.15-33.76-0.82
		C977.38,906.92,987.38,915.65,985.95,917.11z"/>
	<path class="st14" d="M997.11,807.75c0,0,14.15,15.7,40.92-8.03c0,0-18.49-12.45-32.78-8.11
		C990.96,795.95,998.83,806.63,997.11,807.75z"/>
	<path class="st14" d="M958.48,1060.86c0,0,16.75,3.18,36.89-17.31c0,0-20.15-0.15-32.7,6.65S959.86,1059.75,958.48,1060.86z"/>
	<path class="st14" d="M893.54,697.34c0,0,14.19,9.45,40.72-1.58c0,0-18.5-7.99-32.71-6.61
		C887.34,690.53,895.25,696.85,893.54,697.34z"/>
	<path class="st14" d="M902.34,999.64c0,0,17.83,11.34,37.27-18.69c0,0-21.15-7.05-33.76,0.96
		C893.25,989.92,903.69,998.1,902.34,999.64z"/>
	<path class="st14" d="M878.02,890.77c0,0,16.1,13.69,39.5-13.36c0,0-19.97-9.9-33.56-3.71
		C870.36,879.88,879.57,889.43,878.02,890.77z"/>
	<path class="st14" d="M878.72,795.95c0,0,13.44,16.31,41.23-6.22c0,0-17.92-13.26-32.39-9.55
		C873.1,783.89,880.49,794.91,878.72,795.95z"/>
	<path class="st14" d="M826.59,1084.58c0,0,17.83,11.34,37.27-18.69c0,0-21.15-7.05-33.76,0.96
		C817.5,1074.85,827.94,1083.04,826.59,1084.58z"/>
	<path class="st14" d="M772.12,974.34c0,0,17.3,12.14,38.09-16.97c0,0-20.8-8-33.76-0.58S773.54,972.87,772.12,974.34z"/>
	<path class="st14" d="M764.78,844.84c0,0,14.89,14.99,40.48-10.01c0,0-19.07-11.54-33.14-6.51S766.44,843.63,764.78,844.84z"/>
	<path class="st14" d="M749.71,730.91c0,0,13.05,16.62,41.37-5.25c0,0-17.61-13.67-32.16-10.31
		C744.37,718.71,751.5,729.91,749.71,730.91z"/>
	<g id="Layer_5_copy_8" class="st12">
		<path class="st9" d="M706.69,870.62c0,0-9.81-16.81-3.88-38.8c42.5-157.61-153.76-160.7-153.76-160.7s80.68,52.43,104.47,126.46
			c0,0-36.69-90.77-167.1-12.18c0,0,73.32-12.06,132.38,63.95c0,0-17.81-9.78-82.99,26.45c0,0,43.85,59.76,89.3,34.5
			c0,0-28.53,5.32-36.27,35.4c0,0-15.73,10.14-25.93,6.51c0,0,21.72,26.02,63.22,16.87c33.02-7.28,44.77-17.14,44.77-17.14
			s8.5,19.37-38.74,69.62c-23.3,24.78-76.82-18.47-76.82-18.47s11.91,92.11,101.11,73.01c28-5.99,41.75-19.06,47.99-33.05
			c10.41-23.31-0.01-49.2-0.01-49.2s-57.02,88.09,17.67,118.09c0,0,44.89,36.98,28.24,63.65c0,0,35.44-36.22,8.38-88.48
			c-27.05-52.25-3.22-70.3-27.39-108.31c0,0,26.94,4.25,52.23-46.66c0,0-35.91,11.38-57.11-11.42c0,0,5.02-22.21-22.74-39.16
			L706.69,870.62z"/>
	</g>
</g>
<g id="Layer_21" class="st0">
	<path class="st15" d="M753.77,892.4c0,0-3.18,137.07,25.83,136.47c37-0.77,23.86-11.96,30.18-20.17c0,0-7.86-19.76,29.87-51.1
		c0,0,60.75-27.02,89.42,20.99c7.06,11.81,15.97,59.27,15.97,59.27s32.45,15.56,40.62-17.7c11.85-48.25,30-50.12,49.27-63.77
		c108.16-76.61,223.5,7.29,238.08,40.74c13.56,31.11,38.51,6.06,38.51,6.06s23.96-133.9,14.59-176.31c0,0,19.99-218-275.78-142.78
		c0,0-165.35,19.45-237.03,13.72c0,0-30.12,29.29-41.86,45.6C751.87,770.6,747.28,801.5,753.77,892.4z"/>
	<path class="st15" d="M658.67,548.97c0,0,23.58-112.57,73.07-128.09c0,0,3.76-3.1,63.26,69.4c0,0,105.6-1.26,158.26,13.79
		c0,0,37.82-51.11,72.64-64.39c28.59-10.9,34.63,57.48,48.23,112.47c15.4,62.22,36.44,269.16-208.73,261.6
		C865.4,813.75,584.86,785.02,658.67,548.97z"/>
	<circle class="st1" cx="755.45" cy="597.59" r="10.39"/>
	<circle class="st1" cx="922.66" cy="614.05" r="10.39"/>
	<line class="st16" x1="1022.98" y1="615.94" x2="1091.31" y2="613.75"/>
	<line class="st16" x1="1023.11" y1="645.21" x2="1089.7" y2="660.7"/>
	<line class="st16" x1="619.52" y1="573.66" x2="685.01" y2="593.29"/>
	<line class="st17" x1="612.47" y1="620.53" x2="680.83" y2="619.66"/>
	<path class="st15" d="M1295.64,735c0,0,79.65-83.88,24.57-206.46c0,0-36.25-54.54,33.96-75.96c0,0,63.6-9.98,52.05,144.92
		c0,0-13.4,102.08-69.94,150.09C1255.73,816.01,1295.64,735,1295.64,735z"/>
</g>
<g id="half_strbb_copy">
	<path class="st2" d="M571.37,1110.46c0,0,112.82,1.89,42.82-288.96c0,0-27.29-214.16-322.14-5.16
		C76.4,969.19,497.23,1153.66,571.37,1110.46z"/>
	<g id="Layer_2_copy">
		<path class="st3" d="M302.56,808.99l46.26,40.1c0,0-14.37,13.52-13.42,29.46l-76.92,5.15l70.99,9.79c0,0,2.13,34.97,13.86,49.76
			l-8.98,2.52l-6.17,11.54l-32.86,24.86l58.09-24.45c0,0,7.05,14.07,36.47,31.67l-3.04,15.01l0,0l-22.71,38.68
			c0,0,43.1-32.52,42.16-37.59l63.88,25.78l-12.8,45.77l28.2-39.25l68.47,18.75l-8.97-96.08l79.51-14.72l-80.49,0.06
			c0,0,0.01-14.65-8.91-62.7l70.92-37.47l-76.47,23.13c0,0-2.2-20.15-13.41-37.28c-2.02-3.08,38.56-80.43,35.92-83.18
			c-2.14-2.23-47.38,70.05-49.98,68.2c-12-8.56-29.1-12.31-53.38-4.16L431.85,739l-65.52,42.23L302.56,808.99z"/>
	</g>
	<g id="Layer_3_copy">
		<path class="st4" d="M371.32,862.32c0,0,36.37,4.17,70.32-30.61c0,0,84.5-30.35,73.05,176.77
			C514.7,1008.47,308.73,959.61,371.32,862.32z"/>
	</g>
	<g id="Layer_5_copy_4">
		<path class="st5" d="M279.75,821.3c0,0,53.56-13.43,80.46-44.8c0,0,50.93,4.42,83.74-24.28c0,0,45.17-17.08,83.99-55.66
			c0,0-40.79,7.36-62.6,6.94c-23.41-0.45-65.72,37.87-65.72,37.87s21.34-73.67,8.37-89.69c0,0-91.47,66.97-67.05,110.45
			c0,0,4.43-30.83-122.06-63.28c0,0,20.39,68.8,60.38,92.71c0,0-53.35,13.16-78.43,134.93C200.85,926.49,271.33,862.2,279.75,821.3z
			"/>
	</g>
	<g id="Layer_4_copy">
		<path class="st6" d="M423.8,871.46c0,0-30.92,37.33,60.4,97.45C484.2,968.91,464.82,853.65,423.8,871.46z"/>
	</g>
</g>
<g id="full_strbb_copy_4">
	<path class="st8" d="M1607.25,566.42c-14.54,13.17-115.26,37.92-74.79,434.17c33.85,331.35,464.56-50.73,487.86-221.7
		C2038.54,645.17,1670.55,509.08,1607.25,566.42z"/>
	<path class="st3" d="M1825.55,959.15c0,0-21,2.41-17.21,37.98c0,0,20.87-7.83,25.63-21.98
		C1838.74,960.99,1825.47,961.2,1825.55,959.15z"/>
	<path class="st3" d="M1724.9,1021.68c0,0-20.8-3.72-27.38,31.45c0,0,22.24-1.51,30.86-13.71
		C1737,1027.22,1724.23,1023.61,1724.9,1021.68z"/>
	<path class="st3" d="M1610.08,980.59c0,0-19.33,8.53-5.16,41.38c0,0,17.61-13.67,17.95-28.6
		C1623.22,978.44,1610.61,982.57,1610.08,980.59z"/>
	<path class="st3" d="M1579.66,873.88c0,0-18.2,10.74-0.28,41.7c0,0,15.88-15.64,14.48-30.51S1580.42,875.78,1579.66,873.88z"/>
	<path class="st3" d="M1669.74,846.01c0,0-19.46,8.24-5.79,41.29c0,0,17.81-13.4,18.38-28.33
		C1682.91,844.05,1670.24,848,1669.74,846.01z"/>
	<path class="st3" d="M1757.05,912.8c0,0-20.78,3.83-14.59,39.06c0,0,20.29-9.23,24.08-23.68
		C1770.33,913.74,1757.11,914.85,1757.05,912.8z"/>
	<path class="st3" d="M1561.67,747.32c0,0-11.48,12.6-4.58,40.49c0,0,10.68-17.08,11.46-31.34
		C1569.33,742.21,1561.9,749.08,1561.67,747.32z"/>
	<path class="st3" d="M1905.36,882.41c0,0-15.48,7.14-19.99,35.51c0,0,16.49-11.57,22.76-24.4
		C1914.4,880.69,1904.88,884.12,1905.36,882.41z"/>
	<path class="st3" d="M1643.23,731.56c0,0-19,9.25-3.6,41.54c0,0,17.08-14.32,16.86-29.26
		C1656.28,728.91,1643.83,733.52,1643.23,731.56z"/>
	<path class="st3" d="M1748.71,767.86c0,0-20.1,6.54-9.3,40.65c0,0,18.89-11.83,20.74-26.65
		C1762,767.04,1749.04,769.89,1748.71,767.86z"/>
	<path class="st3" d="M1829.11,818.13c0,0-20.93,2.91-16.3,38.38c0,0,20.68-8.32,25.1-22.59S1829.08,820.18,1829.11,818.13z"/>
	<path class="st3" d="M1610.55,622.54c0,0-19,9.25-3.6,41.54c0,0,17.08-14.32,16.86-29.26
		C1623.6,619.9,1611.16,624.5,1610.55,622.54z"/>
	<path class="st3" d="M1732.99,633.88c0,0-19.4,8.38-5.49,41.33c0,0,17.71-13.53,18.18-28.46
		C1746.14,631.83,1733.5,635.87,1732.99,633.88z"/>
	<path class="st3" d="M1847.15,695.46c0,0-20.57,4.84-12.67,39.73c0,0,19.82-10.21,22.9-24.82
		C1860.46,695.75,1847.31,697.5,1847.15,695.46z"/>
	<g id="Layer_5_copy_7">
		<path class="st9" d="M1855.61,632.47c0,0,19.46,0.44,35.09,17.02c112.01,118.76,217.43-46.81,217.43-46.81
			s-86.92,41.27-162.44,22.76c0,0,96.54,16.29,97.9-135.96c0,0-28.13,68.78-123.81,79.27c0,0,17.66-10.05,20.94-84.55
			c0,0-73.88,6.05-76.16,58c0,0,10.41-27.09-11.16-49.44c0,0-0.4-18.71,8.04-25.5c0,0-33.54,4.88-47.48,45.02
			c-11.09,31.95-8.85,47.12-8.85,47.12s-20.95-2.9-39.02-69.46c-8.91-32.83,55.97-55.77,55.97-55.77s-84.7-38.1-115.16,47.89
			c-9.56,26.99-5.63,45.55,3.01,58.19c14.41,21.08,41.92,25.76,41.92,25.76s-45.18-94.72-109.85-46.81c0,0-55.02,18.87-69.01-9.28
			c0,0,12.3,49.16,70.98,53.48c58.68,4.33,61.57,34.07,106.61,33.39c0,0-17.73,20.73,12.39,68.93c0,0,9.12-36.55,39.64-42.66
			c0,0,16.29,15.91,45.27,1.14L1855.61,632.47z"/>
	</g>
</g>
<g id="full_strbb_copy_2">
	<path class="st8" d="M338.03,947.29c-1-17.24,34.44-100.19-238.42-290.07c-228.17-158.79-203.79,347.71-106.78,457.7
		C68.71,1200.94,342.37,1022.38,338.03,947.29z"/>
	<path class="st3" d="M72.89,721.64c0,0,4.39-18-23.72-26.29c0,0-0.24,19.63,9.09,28.08C67.59,731.87,71.37,720.92,72.89,721.64z"/>
	<path class="st3" d="M156.3,759.34c0,0,2.41-18.43-26.41-23.1c0,0,1.89,19.53,12.07,26.73S154.7,758.82,156.3,759.34z"/>
	<path class="st3" d="M128.26,836.67c0,0,4.65-17.93-23.35-26.68c0,0-0.52,19.63,8.69,28.22S126.74,835.92,128.26,836.67z"/>
	<path class="st3" d="M41.37,860.08c0,0,8.12-16.41-17.46-31.51c0,0-4.43,19.04,2.84,29.59C34.02,868.71,40.04,858.99,41.37,860.08z
		"/>
	<path class="st3" d="M246.02,816.51c0,0-2.19-14.83-23.45-25.41c0,0,5.45,16.74,14.13,25.11
		C245.38,824.59,244.78,815.7,246.02,816.51z"/>
	<path class="st3" d="M214.61,881.31c0,0,3.77-18.17-24.62-25.31c0,0,0.44,19.63,10.06,27.69
		C209.66,891.75,213.05,880.65,214.61,881.31z"/>
	<path class="st3" d="M137.88,933.98c0,0,6.05-17.43-21.15-28.74c0,0-2.07,19.51,6.42,28.92S136.43,933.1,137.88,933.98z"/>
	<path class="st3" d="M65.02,961.71c0,0,8.79-16.01-16.15-32.31c0,0-5.21,18.81,1.62,29.69S63.74,960.56,65.02,961.71z"/>
	<path class="st3" d="M300.62,918.72c0,0,3.77-18.17-24.62-25.31c0,0,0.44,19.63,10.06,27.69
		C295.67,929.16,299.06,918.06,300.62,918.72z"/>
	<path class="st3" d="M231.18,996.78c0,0,4.53-17.96-23.53-26.49c0,0-0.39,19.63,8.88,28.15
		C225.8,1006.97,229.66,996.05,231.18,996.78z"/>
	<path class="st3" d="M133.96,1041.54c0,0,7.38-16.82-18.85-30.55c0,0-3.57,19.25,4.16,29.4S132.57,1040.53,133.96,1041.54z"/>
	<path class="st3" d="M50.8,1088.05c0,0,9.13-15.78-15.45-32.71c0,0-5.62,18.67,0.98,29.73
		C42.93,1096.12,49.54,1086.87,50.8,1088.05z"/>
	<g id="Layer_5_copy_3">
		<path class="st9" d="M169.76,1081.98c0,0-10.17,13.15-28.67,14.81C8.56,1108.64,60.4,1272.2,60.4,1272.2s17.9-82.52,68.06-124.34
			c0,0-59.43,57.51,36.81,142.11c0,0-29.5-57.16,12.45-128.8c0,0-2.58,17.68,43.19,60.88c0,0,33.69-54.19,1.78-84.31
			c0,0,11.96,22.06,37.15,19.48c0,0,12.12,10.01,12.15,19.54c0,0,13.94-25.77-4.53-57.43c-14.7-25.19-25.5-31.98-25.5-31.98
			s12.5-12.83,64.05,11.31c25.43,11.91,7.06,69.18,7.06,69.18s67.3-37.38,28.03-105.6c-12.33-21.41-26.14-28.9-38.58-29.9
			c-20.74-1.66-37.7,14.7-37.7,14.7s83.26,20.95,85.63-49.91c0,0,15.95-48.25,40.98-42.41c0,0-37.55-18.55-70.12,19.47
			s-52.99,23.67-75.44,55.04c0,0-4.19-23.6-50.18-29.35c0,0,18.64,26.36,7.02,50.74c0,0-18.41,2.47-23.73,30.54L169.76,1081.98z"/>
	</g>
</g>
<g id="half_strbb_copy_2">
	<path class="st2" d="M1111.05,1026.26c0,0-19.45,121.51,322.62,86.35c0,0,248.16,0.29,55.27-346.99
		C1347.87,511.62,1073.21,940.23,1111.05,1026.26z"/>
	<g id="Layer_2_copy_2">
		<path class="st3" d="M1495.7,777.98l-52.77,44.36c0,0-13.2-17.39-31.51-18.58l5.92-83.74l-22.04,75.26c0,0-40.16-2.56-58.81,8.04
			l-1.5-10.04l-12.2-8.27l-23.29-38.92l18.95,66.1c0,0-17.11,5.65-41.67,34.97l-16.64-5.36l0,0l-40.58-29.89
			c0,0,30.44,51.04,36.36,50.73l-39.16,65.37l-50.18-20.18l40.39,35.89l-31.86,71.3l110.83,3.67l4.58,87.86l12.27-86.89
			c0,0,16.69,2.05,72.79-0.91l31.81,81.75l-14.63-85.75c0,0,23.29,0.42,44.52-9.29c3.82-1.75,85.71,52.79,89.25,50.32
			c2.87-2-72.54-60.88-70.03-63.42c11.59-11.76,18.48-29.7,12.92-57.05l86.16-8.06l-38.07-76.59L1495.7,777.98z"/>
	</g>
	<g id="Layer_3_copy_2">
		<path class="st4" d="M1424.41,844.8c0,0-10.33,38.68,24.09,80.16c0,0,21.62,95.43-212.57,54.3
			C1235.92,979.25,1323.17,763.72,1424.41,844.8z"/>
	</g>
	<g id="Layer_5_copy_6">
		<path class="st5" d="M1485.17,751.66c0,0,7.09,59.68,38.7,93.07c0,0-12.84,54.36,14.82,93.76c0,0,12.53,51.12,50.54,98.39
			c0,0-2.13-45.05,1.69-68.53c4.1-25.21-33.07-76.19-33.07-76.19s80.65,33.27,100.89,21.49c0,0-62.27-108.04-115.55-87.71
			c0,0,34.44,9.06,90.81-122.96c0,0-81.5,12.45-114.87,52.3c0,0-6.81-59.41-141.69-103.39
			C1377.43,651.88,1439.87,736.89,1485.17,751.66z"/>
	</g>
	<g id="Layer_4_copy_2">
		<path class="st6" d="M1405.95,900.17c0,0-37.78-38.56-120.28,51.66C1285.67,951.83,1419.94,946.92,1405.95,900.17z"/>
	</g>
</g>
</svg>
